<svg xmlns="http://www.w3.org/2000/svg" width="22.507" height="22.507" viewBox="0 0 22.507 22.507">
  <path id="Path_21" data-name="Path 21" d="M20.139,0H2.368A2.368,2.368,0,0,0,0,2.368V20.139a2.368,2.368,0,0,0,2.368,2.368H9.212v-8.93h-3V10.094h3V7.529a4.554,4.554,0,0,1,1.223-3.394A4.446,4.446,0,0,1,13.7,2.93a19.576,19.576,0,0,1,2.682.141V6.176H14.529a1.728,1.728,0,0,0-1.364.424,1.949,1.949,0,0,0-.354,1.27v2.224h3.447L15.8,13.577H12.811v8.93h7.328a2.368,2.368,0,0,0,2.368-2.368V2.368A2.368,2.368,0,0,0,20.139,0Z" fill="#fff"/>
</svg>
