<svg xmlns="http://www.w3.org/2000/svg" width="23.083" height="22.061" viewBox="0 0 23.083 22.061">
  <g id="Group_11" data-name="Group 11" transform="translate(0 0)">
    <rect id="Rectangle_31" data-name="Rectangle 31" width="4.959" height="14.893" transform="translate(0.286 7.168)" fill="#fff"/>
    <path id="Path_22" data-name="Path 22" d="M165.138,141.037A5.337,5.337,0,0,0,161,139.331a5.955,5.955,0,0,0-1.721.233,3.9,3.9,0,0,0-1.307.654,5.6,5.6,0,0,0-1.435,1.576v-2.118H151.6l.015.721q.015.722.015,4.448t-.03,9.723h4.944v-8.311a3.629,3.629,0,0,1,.165-1.217,3.192,3.192,0,0,1,.954-1.285,2.433,2.433,0,0,1,1.586-.519,2.138,2.138,0,0,1,1.9.894,4.348,4.348,0,0,1,.609,2.472v7.965H166.7v-8.535A7.155,7.155,0,0,0,165.138,141.037Z" transform="translate(-143.617 -132.508)" fill="#fff"/>
    <path id="Path_23" data-name="Path 23" d="M2.8,9.708a2.829,2.829,0,0,0-2.021.729A2.42,2.42,0,0,0,0,12.278a2.463,2.463,0,0,0,.751,1.833,2.712,2.712,0,0,0,1.984.736h.03A2.831,2.831,0,0,0,4.8,14.111a2.379,2.379,0,0,0,.759-1.833,2.507,2.507,0,0,0-.766-1.841A2.748,2.748,0,0,0,2.8,9.708Z" transform="translate(0 -9.708)" fill="#fff"/>
  </g>
</svg>
