<svg xmlns="http://www.w3.org/2000/svg" width="22.607" height="22.608" viewBox="0 0 22.607 22.608">
  <g id="Group_10" data-name="Group 10" transform="translate(0 0)">
    <path id="Path_14" data-name="Path 14" d="M30.537,23.976a6.719,6.719,0,0,1-1.825,4.739,6.721,6.721,0,0,1-4.739,1.825c-1.56.088-3.105.074-4.665.074s-3.105.015-4.665-.074A6.721,6.721,0,0,1,9.9,28.715a6.719,6.719,0,0,1-1.825-4.739C7.99,22.416,8,20.871,8,19.311s-.015-3.105.074-4.665A6.72,6.72,0,0,1,9.9,9.906a6.72,6.72,0,0,1,4.739-1.825c1.56-.088,3.105-.074,4.665-.074s3.105-.015,4.665.074a6.72,6.72,0,0,1,4.739,1.825,6.72,6.72,0,0,1,1.825,4.739c.088,1.56.074,3.105.074,4.665S30.625,22.416,30.537,23.976Zm-17.9-13.481a3.854,3.854,0,0,0-2.149,2.149c-.589,1.487-.456,5.019-.456,6.667s-.132,5.18.456,6.667a3.855,3.855,0,0,0,2.149,2.149c1.487.589,5.019.456,6.667.456s5.18.132,6.667-.456a3.855,3.855,0,0,0,2.149-2.149c.589-1.487.456-5.019.456-6.667s.132-5.18-.456-6.667a3.854,3.854,0,0,0-2.149-2.149c-1.487-.589-5.019-.456-6.667-.456S14.127,9.906,12.641,10.495Zm6.667,14.614a5.8,5.8,0,1,1,5.8-5.8A5.791,5.791,0,0,1,19.308,25.109Zm0-9.566a3.768,3.768,0,1,0,3.768,3.768A3.775,3.775,0,0,0,19.308,15.543Zm6.034-.913A1.354,1.354,0,1,1,26.7,13.277,1.35,1.35,0,0,1,25.342,14.63Z" transform="translate(-8.004 -8.007)" fill="#fff"/>
  </g>
</svg>
