<?xml version="1.0" encoding="utf-8"?>
<!-- Generator: Adobe Illustrator 26.0.1, SVG Export Plug-In . SVG Version: 6.00 Build 0)  -->
<svg version="1.1" id="Layer_1" xmlns="http://www.w3.org/2000/svg" xmlns:xlink="http://www.w3.org/1999/xlink" x="0px" y="0px"
	 viewBox="0 0 130.4 95.8" style="enable-background:new 0 0 130.4 95.8;" xml:space="preserve">
<style type="text/css">
	.st0{fill:#FFFFFF;}
</style>
<g>
	<g id="Mask_Group_15" transform="translate(-67 -1954)">
		<g id="youtube-svgrepo-com" transform="translate(709.845 1936.847)">
			<g id="Group_260">
				<path id="Path_342" class="st0" d="M-538.7,17.5h-77.9c-14.2,0-25.7,11.6-25.7,25.8v43.4c0,14.2,11.5,25.8,25.7,25.8h77.9
					c14.2,0,25.7-11.6,25.7-25.8V43.3C-513,29.1-524.5,17.6-538.7,17.5z M-518.3,86.8c0,11.3-9.1,20.5-20.4,20.5h-77.9
					c-11.3,0-20.4-9.2-20.4-20.5V43.3c0-11.3,9.1-20.5,20.4-20.5h77.9c11.3,0,20.4,9.2,20.4,20.5V86.8z"/>
				<path id="Path_343" class="st0" d="M-554.3,64.1l-36.6-21.4c-1.3-0.7-2.9-0.3-3.6,0.9c-0.2,0.4-0.4,0.9-0.4,1.3v42.8
					c0,1.5,1.2,2.6,2.6,2.6c0.5,0,0.9-0.1,1.3-0.4l36.6-21.4c1.3-0.7,1.7-2.4,0.9-3.6C-553.6,64.6-553.9,64.3-554.3,64.1
					L-554.3,64.1z M-589.5,83.2V49.6l28.7,16.8L-589.5,83.2z"/>
			</g>
		</g>
	</g>
</g>
</svg>
